<mxfile host="drawio-plugin" modified="2022-08-02T08:10:20.230Z" agent="5.0 (X11; Linux x86_64) AppleWebKit/537.36 (KHTML, like Gecko) Chrome/97.0.4692.45 Safari/537.36" etag="7SSvUdObM10CQlnnb7HL" version="15.5.4" type="embed"><diagram id="23iRSUPoRavnBvh4doch" name="Page-1"><mxGraphModel dx="1211" dy="565" grid="1" gridSize="10" guides="1" tooltips="1" connect="1" arrows="1" fold="1" page="1" pageScale="1" pageWidth="827" pageHeight="1169" math="0" shadow="0"><root><mxCell id="0"/><mxCell id="1" parent="0"/><mxCell id="2" value="Keycloak API" style="rounded=1;whiteSpace=wrap;html=1;" vertex="1" parent="1"><mxGeometry x="800.4100000000001" y="160" width="120" height="60" as="geometry"/></mxCell><mxCell id="3" value="UCS" style="rounded=1;whiteSpace=wrap;html=1;" vertex="1" parent="1"><mxGeometry x="630" y="160" width="120" height="60" as="geometry"/></mxCell><mxCell id="4" style="edgeStyle=none;rounded=0;orthogonalLoop=1;jettySize=auto;html=1;entryX=1;entryY=0.5;entryDx=0;entryDy=0;fontSize=14;strokeWidth=3;fillColor=#008a00;strokeColor=#005700;" edge="1" parent="1" source="6" target="30"><mxGeometry relative="1" as="geometry"><Array as="points"><mxPoint x="1030" y="570"/><mxPoint x="1030" y="350"/></Array></mxGeometry></mxCell><mxCell id="5" style="edgeStyle=none;rounded=0;orthogonalLoop=1;jettySize=auto;html=1;entryX=1;entryY=0.5;entryDx=0;entryDy=0;fontSize=14;strokeWidth=3;fillColor=#008a00;strokeColor=#005700;" edge="1" parent="1" source="6" target="9"><mxGeometry relative="1" as="geometry"><Array as="points"><mxPoint x="1030" y="570"/><mxPoint x="1030" y="920"/></Array></mxGeometry></mxCell><mxCell id="6" value="Nextcloud A Backend" style="rounded=1;whiteSpace=wrap;html=1;" vertex="1" parent="1"><mxGeometry x="800.4100000000001" y="540" width="120" height="60" as="geometry"/></mxCell><mxCell id="7" value="Nextcloud B API" style="rounded=1;whiteSpace=wrap;html=1;" vertex="1" parent="1"><mxGeometry x="800.4100000000001" y="630" width="120" height="60" as="geometry"/></mxCell><mxCell id="8" value="Nordeck Bot A API" style="rounded=1;whiteSpace=wrap;html=1;" vertex="1" parent="1"><mxGeometry x="800.4100000000001" y="800" width="120" height="60" as="geometry"/></mxCell><mxCell id="9" value="Matrix A Backend" style="rounded=1;whiteSpace=wrap;html=1;" vertex="1" parent="1"><mxGeometry x="800.4100000000001" y="890" width="120" height="60" as="geometry"/></mxCell><mxCell id="10" value="Keycloak Backend" style="rounded=1;whiteSpace=wrap;html=1;" vertex="1" parent="1"><mxGeometry x="800.4100000000001" y="250" width="120" height="60" as="geometry"/></mxCell><mxCell id="11" value="Nextcloud A API" style="rounded=1;whiteSpace=wrap;html=1;" vertex="1" parent="1"><mxGeometry x="800.4100000000001" y="470" width="120" height="60" as="geometry"/></mxCell><mxCell id="12" value="Nextcloud B Backend" style="rounded=1;whiteSpace=wrap;html=1;" vertex="1" parent="1"><mxGeometry x="800.4100000000001" y="710" width="120" height="60" as="geometry"/></mxCell><mxCell id="13" style="edgeStyle=none;rounded=0;orthogonalLoop=1;jettySize=auto;html=1;entryX=0;entryY=0.5;entryDx=0;entryDy=0;fillColor=#008a00;strokeColor=#005700;exitX=1;exitY=0.5;exitDx=0;exitDy=0;strokeWidth=3;" edge="1" parent="1" source="20" target="10"><mxGeometry relative="1" as="geometry"><mxPoint x="90" y="318.3561643835617" as="sourcePoint"/></mxGeometry></mxCell><mxCell id="14" style="edgeStyle=none;rounded=0;orthogonalLoop=1;jettySize=auto;html=1;entryX=0;entryY=0.5;entryDx=0;entryDy=0;fillColor=#008a00;strokeColor=#005700;exitX=1;exitY=0.5;exitDx=0;exitDy=0;strokeWidth=3;" edge="1" parent="1" source="20" target="6"><mxGeometry relative="1" as="geometry"><mxPoint x="90" y="324.5205479452054" as="sourcePoint"/></mxGeometry></mxCell><mxCell id="15" style="edgeStyle=none;rounded=0;orthogonalLoop=1;jettySize=auto;html=1;entryX=0;entryY=0.5;entryDx=0;entryDy=0;fillColor=#008a00;strokeColor=#005700;startArrow=none;exitX=0.996;exitY=0.317;exitDx=0;exitDy=0;strokeWidth=3;exitPerimeter=0;" edge="1" parent="1" source="36" target="9"><mxGeometry relative="1" as="geometry"><mxPoint x="90" y="338.4931506849316" as="sourcePoint"/></mxGeometry></mxCell><mxCell id="16" style="edgeStyle=none;rounded=0;orthogonalLoop=1;jettySize=auto;html=1;exitX=1;exitY=0.5;exitDx=0;exitDy=0;entryX=0;entryY=0.5;entryDx=0;entryDy=0;strokeWidth=3;fillColor=#e3c800;strokeColor=#B09500;" edge="1" parent="1" source="20" target="28"><mxGeometry relative="1" as="geometry"/></mxCell><mxCell id="17" style="edgeStyle=none;rounded=0;orthogonalLoop=1;jettySize=auto;html=1;entryX=0;entryY=0.5;entryDx=0;entryDy=0;strokeWidth=3;fillColor=#e3c800;strokeColor=#B09500;exitX=1;exitY=0.5;exitDx=0;exitDy=0;" edge="1" parent="1" source="20" target="9"><mxGeometry relative="1" as="geometry"/></mxCell><mxCell id="18" style="edgeStyle=none;rounded=0;orthogonalLoop=1;jettySize=auto;html=1;entryX=0;entryY=0.5;entryDx=0;entryDy=0;strokeWidth=3;fillColor=#e3c800;strokeColor=#B09500;exitX=1;exitY=0.5;exitDx=0;exitDy=0;" edge="1" parent="1" source="20" target="9"><mxGeometry relative="1" as="geometry"/></mxCell><mxCell id="19" style="edgeStyle=none;rounded=0;orthogonalLoop=1;jettySize=auto;html=1;strokeWidth=3;fillColor=#e51400;strokeColor=#B20000;exitX=1;exitY=0.5;exitDx=0;exitDy=0;" edge="1" parent="1" source="20"><mxGeometry relative="1" as="geometry"><mxPoint x="800" y="830" as="targetPoint"/><mxPoint x="260" y="280" as="sourcePoint"/></mxGeometry></mxCell><mxCell id="20" value="Nexcloud Tab" style="rounded=1;whiteSpace=wrap;html=1;" vertex="1" parent="1"><mxGeometry x="120" y="250" width="120" height="60" as="geometry"/></mxCell><mxCell id="21" style="edgeStyle=none;rounded=0;orthogonalLoop=1;jettySize=auto;html=1;entryX=0;entryY=0.5;entryDx=0;entryDy=0;fillColor=#008a00;strokeColor=#005700;strokeWidth=3;exitX=1;exitY=0.5;exitDx=0;exitDy=0;" edge="1" parent="1" source="26" target="10"><mxGeometry relative="1" as="geometry"/></mxCell><mxCell id="22" style="edgeStyle=none;rounded=0;orthogonalLoop=1;jettySize=auto;html=1;entryX=0;entryY=0.5;entryDx=0;entryDy=0;strokeWidth=3;fillColor=#e3c800;strokeColor=#B09500;exitX=1;exitY=0.5;exitDx=0;exitDy=0;" edge="1" parent="1" source="26" target="9"><mxGeometry relative="1" as="geometry"/></mxCell><mxCell id="23" style="edgeStyle=none;rounded=0;orthogonalLoop=1;jettySize=auto;html=1;entryX=0;entryY=0.5;entryDx=0;entryDy=0;strokeWidth=3;fillColor=#e3c800;strokeColor=#B09500;exitX=1;exitY=0.5;exitDx=0;exitDy=0;" edge="1" parent="1" source="26" target="6"><mxGeometry relative="1" as="geometry"><mxPoint x="280" y="410" as="sourcePoint"/></mxGeometry></mxCell><mxCell id="24" style="edgeStyle=none;rounded=0;orthogonalLoop=1;jettySize=auto;html=1;entryX=0;entryY=0.5;entryDx=0;entryDy=0;strokeWidth=3;fillColor=#e51400;strokeColor=#B20000;exitX=1;exitY=0.5;exitDx=0;exitDy=0;" edge="1" parent="1" source="26" target="8"><mxGeometry relative="1" as="geometry"/></mxCell><mxCell id="25" style="edgeStyle=none;rounded=0;orthogonalLoop=1;jettySize=auto;html=1;entryX=0;entryY=0.5;entryDx=0;entryDy=0;strokeWidth=3;fillColor=#e51400;strokeColor=#B20000;exitX=1;exitY=0.5;exitDx=0;exitDy=0;" edge="1" parent="1" source="26" target="11"><mxGeometry relative="1" as="geometry"><mxPoint x="260" y="410" as="sourcePoint"/></mxGeometry></mxCell><mxCell id="26" value="OX Tab" style="rounded=1;whiteSpace=wrap;html=1;" vertex="1" parent="1"><mxGeometry x="120" y="340" width="120" height="60" as="geometry"/></mxCell><mxCell id="27" style="edgeStyle=none;rounded=0;orthogonalLoop=1;jettySize=auto;html=1;entryX=1;entryY=0.5;entryDx=0;entryDy=0;fontSize=14;strokeWidth=3;fillColor=#008a00;strokeColor=#005700;" edge="1" parent="1" source="28" target="8"><mxGeometry relative="1" as="geometry"><Array as="points"><mxPoint x="980" y="430"/><mxPoint x="980" y="830"/></Array></mxGeometry></mxCell><mxCell id="28" value="OX Backend" style="rounded=1;whiteSpace=wrap;html=1;" vertex="1" parent="1"><mxGeometry x="800" y="400" width="120" height="60" as="geometry"/></mxCell><mxCell id="29" style="edgeStyle=none;rounded=0;orthogonalLoop=1;jettySize=auto;html=1;entryX=1;entryY=0.5;entryDx=0;entryDy=0;fontSize=14;strokeWidth=3;fillColor=#008a00;strokeColor=#005700;" edge="1" parent="1" target="11"><mxGeometry relative="1" as="geometry"><mxPoint x="920" y="430" as="sourcePoint"/><Array as="points"><mxPoint x="980" y="430"/><mxPoint x="980" y="500"/></Array></mxGeometry></mxCell><mxCell id="30" value="OX API" style="rounded=1;whiteSpace=wrap;html=1;" vertex="1" parent="1"><mxGeometry x="800.41" y="320" width="120" height="60" as="geometry"/></mxCell><mxCell id="31" style="edgeStyle=none;rounded=0;orthogonalLoop=1;jettySize=auto;html=1;entryX=0;entryY=0.5;entryDx=0;entryDy=0;fillColor=#008a00;strokeColor=#005700;strokeWidth=3;exitX=1;exitY=0.5;exitDx=0;exitDy=0;" edge="1" parent="1" source="36" target="10"><mxGeometry relative="1" as="geometry"><mxPoint x="260" y="530" as="sourcePoint"/></mxGeometry></mxCell><mxCell id="32" style="edgeStyle=none;rounded=0;orthogonalLoop=1;jettySize=auto;html=1;entryX=0;entryY=0.5;entryDx=0;entryDy=0;strokeWidth=3;fillColor=#e51400;strokeColor=#B20000;exitX=1.002;exitY=0.321;exitDx=0;exitDy=0;exitPerimeter=0;" edge="1" parent="1" source="36" target="30"><mxGeometry relative="1" as="geometry"/></mxCell><mxCell id="33" style="edgeStyle=none;rounded=0;orthogonalLoop=1;jettySize=auto;html=1;entryX=0;entryY=0.5;entryDx=0;entryDy=0;strokeWidth=3;fillColor=#e3c800;strokeColor=#B09500;" edge="1" parent="1" source="36" target="28"><mxGeometry relative="1" as="geometry"/></mxCell><mxCell id="34" style="edgeStyle=none;rounded=0;orthogonalLoop=1;jettySize=auto;html=1;entryX=0;entryY=0.5;entryDx=0;entryDy=0;strokeWidth=3;fillColor=#e51400;strokeColor=#B20000;exitX=0.992;exitY=0.317;exitDx=0;exitDy=0;exitPerimeter=0;" edge="1" parent="1" source="36" target="11"><mxGeometry relative="1" as="geometry"/></mxCell><mxCell id="35" style="edgeStyle=none;rounded=0;orthogonalLoop=1;jettySize=auto;html=1;strokeWidth=3;fillColor=#e3c800;strokeColor=#B09500;exitX=1;exitY=0.313;exitDx=0;exitDy=0;exitPerimeter=0;" edge="1" parent="1" source="36"><mxGeometry relative="1" as="geometry"><mxPoint x="800" y="570" as="targetPoint"/></mxGeometry></mxCell><mxCell id="36" value="Element Tab" style="rounded=1;whiteSpace=wrap;html=1;" vertex="1" parent="1"><mxGeometry x="120" y="420" width="120" height="60" as="geometry"/></mxCell><mxCell id="37" value="" style="endArrow=none;html=1;rounded=0;entryX=0;entryY=0.5;entryDx=0;entryDy=0;exitX=1;exitY=0.5;exitDx=0;exitDy=0;fillColor=#008a00;strokeColor=#005700;strokeWidth=3;" edge="1" parent="1" source="26" target="28"><mxGeometry width="50" height="50" relative="1" as="geometry"><mxPoint x="490" y="630" as="sourcePoint"/><mxPoint x="540" y="580" as="targetPoint"/></mxGeometry></mxCell><mxCell id="38" value="" style="endArrow=none;html=1;rounded=0;entryX=0;entryY=0.5;entryDx=0;entryDy=0;exitX=1;exitY=0.5;exitDx=0;exitDy=0;" edge="1" parent="1" source="3" target="10"><mxGeometry width="50" height="50" relative="1" as="geometry"><mxPoint x="480" y="470" as="sourcePoint"/><mxPoint x="530" y="420" as="targetPoint"/></mxGeometry></mxCell><mxCell id="39" value="" style="endArrow=none;html=1;rounded=0;strokeWidth=3;exitX=1;exitY=0.5;exitDx=0;exitDy=0;entryX=0;entryY=0.5;entryDx=0;entryDy=0;fillColor=#e51400;strokeColor=#B20000;" edge="1" parent="1" source="20" target="30"><mxGeometry width="50" height="50" relative="1" as="geometry"><mxPoint x="470" y="530" as="sourcePoint"/><mxPoint x="520" y="480" as="targetPoint"/></mxGeometry></mxCell><mxCell id="40" value="&lt;font style=&quot;font-size: 14px&quot;&gt;Session: Save and Easy&lt;/font&gt;" style="rounded=1;whiteSpace=wrap;html=1;fillColor=#008a00;fontColor=#ffffff;strokeColor=#005700;" vertex="1" parent="1"><mxGeometry x="120" y="530" width="190" height="40" as="geometry"/></mxCell><mxCell id="41" value="1st Party Tricks" style="rounded=1;whiteSpace=wrap;html=1;fontSize=14;fillColor=#e3c800;fontColor=#000000;strokeColor=#B09500;" vertex="1" parent="1"><mxGeometry x="120" y="590" width="190" height="40" as="geometry"/></mxCell><mxCell id="42" value="Token, Unsafe, at least for SPAs" style="rounded=1;whiteSpace=wrap;html=1;fontSize=14;fillColor=#e51400;fontColor=#ffffff;strokeColor=#B20000;" vertex="1" parent="1"><mxGeometry x="120" y="650" width="190" height="40" as="geometry"/></mxCell><mxCell id="43" value="Note: Left out calls to own API" style="rounded=1;whiteSpace=wrap;html=1;fontSize=14;" vertex="1" parent="1"><mxGeometry x="120" y="720" width="210" height="40" as="geometry"/></mxCell><mxCell id="45" value="Note: Left out most Backend Calls" style="rounded=1;whiteSpace=wrap;html=1;fontSize=14;" vertex="1" parent="1"><mxGeometry x="120" y="790" width="230" height="50" as="geometry"/></mxCell></root></mxGraphModel></diagram></mxfile>